<svg xmlns="http://www.w3.org/2000/svg" width="63.527" height="63.523" viewBox="0 0 63.527 63.523">
  <g id="services1" transform="translate(0.503 0.5)">
    <g id="Group_10" data-name="Group 10" transform="translate(0 0)">
      <g id="Group_9" data-name="Group 9">
        <path id="Path_14" data-name="Path 14" d="M61.157,17.773l-.846-.847-.009-.01L46.611,3.226h0l-.855-.855a4.678,4.678,0,0,0-6.608,0L28.879,12.639a4.678,4.678,0,0,0,0,6.608l.12.12-3.617,3.609c-1.563,1.563-2.944,2.983-4.217,4.333q-.9.948-1.8,1.911c-2.048,2.194-4.061,4.439-6.011,6.706q-.382.444-.763.889c-3.738,4.373-7.372,8.937-10.8,13.56l-.222.3A8.12,8.12,0,0,0,2.348,61.18a8.115,8.115,0,0,0,10.512.772l.285-.214c4.587-3.386,9.1-6.981,13.42-10.683.014-.011.028-.021.041-.032,3.3-2.8,6.574-5.749,9.718-8.755l.02-.021c1.413-1.345,2.828-2.725,4.208-4.1l3.608-3.616.122.122a4.679,4.679,0,0,0,6.608,0L61.158,24.381A4.678,4.678,0,0,0,61.157,17.773Zm-3.066-.119-5.252,5.253a.175.175,0,0,1-.239,0L40.621,10.927a.175.175,0,0,1-.049-.119.168.168,0,0,1,.049-.119l5.253-5.253,6.133,6.133ZM11.9,60.069l-.287.215a5.984,5.984,0,0,1-8.375-8.366l.222-.3c3.071-4.144,6.308-8.234,9.637-12.182a22.926,22.926,0,0,0,4.685,6.5,23.366,23.366,0,0,0,6.228,4.559C20.1,53.8,16.033,57.021,11.9,60.069Zm27.175-23.4c-1.374,1.375-2.783,2.749-4.193,4.09h0l0,0c-2.716,2.589-5.517,5.131-8.344,7.573l-.252.217-.535.458a21.348,21.348,0,0,1-6.492-4.555,20.948,20.948,0,0,1-4.668-6.774l.236-.275.563-.653q.3-.351.61-.7l.348-.4q.4-.46.81-.918l.187-.212q.468-.526.939-1.049l.094-.1q.485-.538.974-1.072l.092-.1q.43-.47.864-.937l.233-.252c.172-.186.346-.37.519-.555q.8-.859,1.613-1.708l.018-.021c1.26-1.335,2.622-2.735,4.164-4.277l3.619-3.609L42.687,33.055ZM59.685,22.907,49.416,33.176a2.59,2.59,0,0,1-3.66,0l-.828-.828c-.01-.011-.02-.023-.031-.034L31.212,18.629c-.014-.014-.029-.026-.044-.04l-.815-.815a2.592,2.592,0,0,1,0-3.66L40.621,3.845a2.592,2.592,0,0,1,3.66,0l.119.119L39.148,9.216a2.252,2.252,0,0,0,0,3.185l11.979,11.98a2.252,2.252,0,0,0,3.186,0l5.252-5.253.12.12A2.592,2.592,0,0,1,59.685,22.907Z" transform="translate(0 -1.004)" fill="#fb0000" stroke="#fb0000" stroke-width="1"/>
        <path id="Path_15" data-name="Path 15" d="M291.822,136.127a1.042,1.042,0,1,0-1.474,1.474l4.278,4.279a1.042,1.042,0,1,0,1.474-1.474Z" transform="translate(-254.623 -119.358)" fill="#fb0000" stroke="#fb0000" stroke-width="1"/>
        <path id="Path_16" data-name="Path 16" d="M354.879,199.186a1.043,1.043,0,0,0-1.474,1.475l.856.856a1.042,1.042,0,0,0,1.474-1.475Z" transform="translate(-309.98 -174.717)" fill="#fb0000" stroke="#fb0000" stroke-width="1"/>
        <path id="Path_17" data-name="Path 17" d="M193.088,228.254a10.17,10.17,0,0,0-6.808,6.808,4.113,4.113,0,0,0,.836,4.059,3.662,3.662,0,0,0,2.662,1.015,8.448,8.448,0,0,0,5.656-2.727c2.813-2.813,3.564-6.467,1.711-8.319A4.112,4.112,0,0,0,193.088,228.254Zm.872,7.682c-2.087,2.087-4.506,2.575-5.372,1.711a2.187,2.187,0,0,1-.288-2.078,8.109,8.109,0,0,1,5.293-5.292,3.66,3.66,0,0,1,.885-.118,1.649,1.649,0,0,1,1.193.4C196.537,231.429,196.047,233.848,193.96,235.935Z" transform="translate(-163.371 -200.342)" fill="#fb0000" stroke="#fb0000" stroke-width="1"/>
      </g>
    </g>
  </g>
</svg>
