<svg xmlns="http://www.w3.org/2000/svg" width="37.521" height="63.15" viewBox="0 0 37.521 63.15">
  <path id="services2" d="M36.559,6.951a.922.922,0,1,0-1.755.568,6.8,6.8,0,0,1,.052,4.032L30.278,27.119H28.685Q30.3,18.774,31.918,10.43a13.367,13.367,0,0,0-.458-6.87,6.715,6.715,0,0,1,1.918,1.482.922.922,0,1,0,1.372-1.234,8.527,8.527,0,0,0-4.693-2.675,57.107,57.107,0,0,0-22.634,0A8.659,8.659,0,0,0,.851,12.072l1.407,4.786L5.276,27.12a3.138,3.138,0,0,0-1.352,5.944c-.035.7-.053,1.4-.053,2.114A39.078,39.078,0,0,0,5.652,47.031a.922.922,0,1,0,1.756-.567A37.223,37.223,0,0,1,5.716,35.177c0-.6.014-1.192.04-1.781H31.72c.026.588.04,1.184.04,1.781a36.527,36.527,0,0,1-2.03,12.274,20.617,20.617,0,0,1-4.932,8.04H12.675a19.03,19.03,0,0,1-4.047-5.883.923.923,0,0,0-1.676.772,22.216,22.216,0,0,0,3.212,5.143,3.326,3.326,0,0,0,.451,6.622H26.861a3.326,3.326,0,0,0,.449-6.623c3.922-4.6,6.3-12.149,6.3-20.345,0-.709-.018-1.417-.053-2.114A3.138,3.138,0,0,0,32.2,27.12q2.212-7.524,4.424-15.048a8.641,8.641,0,0,0-.066-5.121ZM28.342,58.818A1.483,1.483,0,0,1,26.861,60.3H10.615a1.482,1.482,0,0,1,0-2.964H26.861A1.483,1.483,0,0,1,28.342,58.818Zm1.764-48.739q-1.651,8.519-3.3,17.04H23.59l1.417-16.787a27.165,27.165,0,0,0-.5-8.181q2.31.243,4.612.681a11.149,11.149,0,0,1,.985,7.247Zm-7.552-8.1a24.251,24.251,0,0,1,.615,8.2l-1.43,16.942h-6l-1.43-16.942a24.236,24.236,0,0,1,.615-8.2,54.939,54.939,0,0,1,7.631,0ZM10.671,27.119l-3.3-17.04a11.144,11.144,0,0,1,.985-7.247q2.3-.438,4.612-.681a27.147,27.147,0,0,0-.5,8.181l1.418,16.787ZM2.621,11.551a6.861,6.861,0,0,1,.707-5.468,6.719,6.719,0,0,1,2.69-2.524,13.363,13.363,0,0,0-.458,6.87L8.792,27.119H7.2L4.028,16.337ZM33.442,30.258a1.3,1.3,0,0,1-1.294,1.294H5.328a1.294,1.294,0,1,1,0-2.588h26.82a1.3,1.3,0,0,1,1.294,1.294Zm0,0" transform="translate(0.032 0.504)" fill="#fb0000" stroke="#fb0000" stroke-width="1"/>
</svg>
