<svg xmlns="http://www.w3.org/2000/svg" width="69.227" height="63.529" viewBox="0 0 69.227 63.529">
  <g id="services3" transform="translate(0.615 0.506)">
    <g id="Group_12" data-name="Group 12" transform="translate(0 0)">
      <g id="Group_11" data-name="Group 11">
        <path id="Path_18" data-name="Path 18" d="M67.539,26.467l-2.994-1.843a1.163,1.163,0,0,0-1.412.148L61.494,26.33a6.365,6.365,0,0,1-5.643,1.636,7.3,7.3,0,0,0-14.4-1.374q-.775,3.281-1.771,6.5h-.461A9.413,9.413,0,0,0,32.6,35.781a7.1,7.1,0,0,1-4.985,2.03H3.491a11.337,11.337,0,0,1,0-9.994H37.25a1.164,1.164,0,0,0,0-2.328H2.786a1.164,1.164,0,0,0-1.015.594,13.666,13.666,0,0,0-.1,13.269l.1.178a1.164,1.164,0,0,0,1.024.61H27.62a9.413,9.413,0,0,0,6.611-2.692,7.093,7.093,0,0,1,4.692-2.023A100.91,100.91,0,0,1,17.531,71.566,5.471,5.471,0,0,0,17.508,79l2.434,2.667a5.521,5.521,0,0,0,4.047,1.795h.02a5.493,5.493,0,0,0,4.019-1.753A115.417,115.417,0,0,0,54.214,35.417h3.833a10.387,10.387,0,0,0,10.006-7.654A1.164,1.164,0,0,0,67.539,26.467ZM53.507,28.692c0,.015,0,.029,0,.044a5.077,5.077,0,0,1-.1.612,112.96,112.96,0,0,1-27.078,50.78,3.116,3.116,0,0,1-2.311,1.007H24A3.145,3.145,0,0,1,21.662,80.1l-2.434-2.667a3.156,3.156,0,0,1,.016-4.289,103.06,103.06,0,0,0,24.47-46.018,4.973,4.973,0,0,1,8.942-1.7A4.866,4.866,0,0,1,53.507,28.692Zm4.539,4.4H54.859q.372-1.4.709-2.808a8.685,8.685,0,0,0,7.53-2.264l.989-.94,1.449.892A8.058,8.058,0,0,1,58.047,33.089Z" transform="translate(0 -20.94)" fill="#fb0000" stroke="#fb0000" stroke-width="1"/>
      </g>
    </g>
    <g id="Group_14" data-name="Group 14" transform="translate(20.643 53.034)">
      <g id="Group_13" data-name="Group 13">
        <ellipse id="Ellipse_3" data-name="Ellipse 3" cx="1.295" cy="1.295" rx="1.295" ry="1.295" fill="#fb0000" stroke="#fb0000" stroke-width="1"/>
      </g>
    </g>
  </g>
</svg>
